<?xml version="1.0" encoding="utf-8"?>
<!-- Generator: Adobe Illustrator 18.1.0, SVG Export Plug-In . SVG Version: 6.00 Build 0)  -->
<!DOCTYPE svg PUBLIC "-//W3C//DTD SVG 1.1//EN" "http://www.w3.org/Graphics/SVG/1.1/DTD/svg11.dtd">
<svg version="1.1" id="Layer_1" xmlns="http://www.w3.org/2000/svg" xmlns:xlink="http://www.w3.org/1999/xlink" x="0px" y="0px"
	 viewBox="0 0 62 62" enable-background="new 0 0 62 62" xml:space="preserve">
<g>
	<path fill="#FFFFFF" d="M43.3,11.6c0.1-1.2,1.5-1.6,2.9-1.7c0.2-2.7-0.4-4.7-1.6-6.2C42.6,1.5,39.2,1,36.8,1
		c-1.8,0-3.6,0.3-4.7,0.5v56l-0.1,0.2l0,0c1.1,2.2,2.6,3.3,4.7,3.3c3.1,0,6.7-2.2,8.4-3.5c-2.4-1.3-7-4.1-7.3-6.9l1.8-0.2
		c0.2,1.9,4.3,4.5,7.1,5.8c5.9-3.5,8.9-6.8,8.8-9.6c-0.2-3.1-4-4.8-4-4.8l-1.9-0.9l0.1-0.1c-2.5-1.2-6.3-2.5-8.5-1.6
		c-0.8,0.3-1.4,1-1.6,1.9L38,40.6c0.4-1.6,1.4-2.6,2.7-3.2c3.7-1.6,9.8,1.5,11.4,2.3c2.1-1,3.4-2.5,4.1-4.6c2-6.8-4.2-17.4-5.3-19.2
		C44.4,14,43.2,12.8,43.3,11.6z M45.1,27c-0.3-0.2-7.7-5.3-7-10.7l1.8,0.3c-0.5,3.5,4.4,7.6,6.2,8.8L45.1,27z"/>
	<path fill="#FFFFFF" d="M30,57.6L30,57.6l-0.1-0.2V1.5C28.9,1.3,27.2,1,25.3,1c-2.5,0-5.8,0.5-7.8,2.6c-1.3,1.5-1.8,3.5-1.6,6.2
		c1.4,0.2,2.7,0.7,2.9,1.7c0.2,1.3-1.1,2.4-7.7,4.5C10,17.9,3.8,28.3,5.8,35.2c0.7,2,1.9,3.6,4.1,4.6c1.6-0.9,7.8-3.9,11.4-2.4
		c1.4,0.6,2.2,1.6,2.7,3.2L22.2,41c-0.3-1-0.8-1.6-1.6-1.9c-2.2-0.9-6,0.5-8.4,1.6l0.1,0.1l-1.9,0.9c0,0-3.9,1.7-4,4.8
		c-0.1,2.9,2.9,6.2,8.9,9.7c2.8-1.4,7.1-4,7.3-5.9l1.8,0.2c-0.3,3-5,5.8-7.4,7c1.8,1.3,5.2,3.4,8.3,3.4C27.5,61,29,59.8,30,57.6z
		 M17,27L16,25.4c1.8-1.3,6.6-5.3,6.2-8.8l1.8-0.3C24.8,21.6,17.4,26.8,17,27z"/>
</g>
</svg>
