<?xml version="1.0" encoding="utf-8"?>
<!-- Generator: Adobe Illustrator 18.1.0, SVG Export Plug-In . SVG Version: 6.00 Build 0)  -->
<!DOCTYPE svg PUBLIC "-//W3C//DTD SVG 1.1//EN" "http://www.w3.org/Graphics/SVG/1.1/DTD/svg11.dtd">
<svg version="1.1" id="Layer_1" xmlns="http://www.w3.org/2000/svg" xmlns:xlink="http://www.w3.org/1999/xlink" x="0px" y="0px"
	 viewBox="0 0 62 62" enable-background="new 0 0 62 62" xml:space="preserve">
<g>
	<path fill="#FFFFFF" d="M3.1,56.7V13.9c0-1.2,0.4-2.2,1.3-3c0.8-0.8,1.9-1.3,3-1.3h4.3V6.4c0-1.5,0.5-2.7,1.6-3.8S15.6,1,17.1,1
		h2.1c1.5,0,2.7,0.5,3.8,1.6s1.6,2.3,1.6,3.8v3.2h12.9V6.4c0-1.5,0.5-2.7,1.6-3.8c1-1,2.3-1.6,3.8-1.6h2.1c1.5,0,2.7,0.5,3.8,1.6
		s1.6,2.3,1.6,3.8v3.2h4.3c1.2,0,2.2,0.4,3,1.3c0.8,0.8,1.3,1.9,1.3,3v42.9c0,1.2-0.4,2.2-1.3,3s-1.9,1.3-3,1.3H7.4
		c-1.2,0-2.2-0.4-3-1.3C3.6,58.9,3.1,57.9,3.1,56.7z M7.4,32.1h9.6v-9.6H7.4V32.1z M7.4,44.9h9.6V34.2H7.4V44.9z M7.4,56.7h9.6v-9.6
		H7.4V56.7z M16,16c0,0.3,0.1,0.5,0.3,0.8s0.5,0.3,0.8,0.3h2.1c0.3,0,0.5-0.1,0.8-0.3s0.3-0.5,0.3-0.8V6.4c0-0.3-0.1-0.5-0.3-0.8
		s-0.5-0.3-0.8-0.3h-2.1c-0.3,0-0.5,0.1-0.8,0.3S16,6.1,16,6.4V16z M19.2,32.1h10.7v-9.6H19.2V32.1z M19.2,44.9h10.7V34.2H19.2V44.9
		z M19.2,56.7h10.7v-9.6H19.2V56.7z M32.1,32.1h10.7v-9.6H32.1V32.1z M32.1,44.9h10.7V34.2H32.1V44.9z M32.1,56.7h10.7v-9.6H32.1
		V56.7z M41.7,16c0,0.3,0.1,0.5,0.3,0.8s0.5,0.3,0.8,0.3h2.1c0.3,0,0.5-0.1,0.8-0.3c0.2-0.2,0.3-0.5,0.3-0.8V6.4
		c0-0.3-0.1-0.5-0.3-0.8c-0.2-0.2-0.5-0.3-0.8-0.3h-2.1c-0.3,0-0.5,0.1-0.8,0.3s-0.3,0.5-0.3,0.8V16z M44.9,32.1h9.6v-9.6h-9.6V32.1
		z M44.9,44.9h9.6V34.2h-9.6V44.9z M44.9,56.7h9.6v-9.6h-9.6V56.7z"/>
</g>
</svg>
