<?xml version="1.0" encoding="utf-8"?>
<!-- Generator: Adobe Illustrator 18.1.0, SVG Export Plug-In . SVG Version: 6.00 Build 0)  -->
<!DOCTYPE svg PUBLIC "-//W3C//DTD SVG 1.1//EN" "http://www.w3.org/Graphics/SVG/1.1/DTD/svg11.dtd">
<svg version="1.1" id="Layer_1" xmlns="http://www.w3.org/2000/svg" xmlns:xlink="http://www.w3.org/1999/xlink" x="0px" y="0px"
	 viewBox="0 0 184 500" enable-background="new 0 0 184 500" xml:space="preserve">
<g>
	<g>
		<path fill="#4FC6DB" d="M92.3,495.8c0,1.9,2.3,3.4,5.2,3.4h45.2c2.9,0,5.2-1.5,5.2-3.4c0,0-2.3-26.9-5.2-26.9H97.5
			C94.6,468.9,92.3,495.8,92.3,495.8z"/>
		<path fill="#4FC6DB" d="M92.3,495.8c0,1.9-2.3,3.4-5.2,3.4H41.9c-2.9,0-5.2-1.5-5.2-3.4c0,0,2.3-26.9,5.2-26.9h45.2
			C90,468.9,92.3,495.8,92.3,495.8z"/>
	</g>
	<g>
		<g>
			<path fill="#2C3E50" d="M106.1,489.7c0.2,0,0.4,0,0.6-0.1c0,0,4.3-2.1,13.4-2.1c9.2,0,13.4,2.1,13.4,2.1c0.6,0.3,1.3,0.1,1.6-0.5
				c0.3-0.6,0.1-1.3-0.5-1.6c-0.2-0.1-4.7-2.4-14.5-2.4s-14.3,2.3-14.5,2.4c-0.6,0.3-0.8,1-0.5,1.6
				C105.3,489.5,105.7,489.7,106.1,489.7z"/>
		</g>
		<g>
			<path fill="#2C3E50" d="M106.1,486.3c0.2,0,0.4,0,0.6-0.1c0,0,4.3-2.1,13.4-2.1c9.2,0,13.4,2.1,13.4,2.1c0.6,0.3,1.3,0.1,1.6-0.5
				c0.3-0.6,0.1-1.3-0.5-1.6c-0.2-0.1-4.7-2.4-14.5-2.4s-14.3,2.3-14.5,2.4c-0.6,0.3-0.8,1-0.5,1.6
				C105.3,486.1,105.7,486.3,106.1,486.3z"/>
		</g>
		<g>
			<path fill="#2C3E50" d="M106.1,483c0.2,0,0.4,0,0.6-0.1c0,0,4.3-2.1,13.4-2.1c9.2,0,13.4,2.1,13.4,2.1c0.6,0.3,1.3,0.1,1.6-0.5
				c0.3-0.6,0.1-1.3-0.5-1.6c-0.2-0.1-4.7-2.4-14.5-2.4s-14.3,2.3-14.5,2.4c-0.6,0.3-0.8,1-0.5,1.6C105.3,482.8,105.7,483,106.1,483
				z"/>
		</g>
		<g>
			<path fill="#2C3E50" d="M78.5,489.7c-0.2,0-0.4,0-0.6-0.1c0,0-4.3-2.1-13.4-2.1c-9.2,0-13.4,2.1-13.4,2.1
				c-0.6,0.3-1.3,0.1-1.6-0.5c-0.3-0.6-0.1-1.3,0.5-1.6c0.2-0.1,4.7-2.4,14.5-2.4c9.8,0,14.3,2.3,14.5,2.4c0.6,0.3,0.8,1,0.5,1.6
				C79.3,489.5,78.9,489.7,78.5,489.7z"/>
		</g>
		<g>
			<path fill="#2C3E50" d="M78.5,486.3c-0.2,0-0.4,0-0.6-0.1c0,0-4.3-2.1-13.4-2.1c-9.2,0-13.4,2.1-13.4,2.1
				c-0.6,0.3-1.3,0.1-1.6-0.5c-0.3-0.6-0.1-1.3,0.5-1.6c0.2-0.1,4.7-2.4,14.5-2.4c9.8,0,14.3,2.3,14.5,2.4c0.6,0.3,0.8,1,0.5,1.6
				C79.3,486.1,78.9,486.3,78.5,486.3z"/>
		</g>
		<g>
			<path fill="#2C3E50" d="M78.5,483c-0.2,0-0.4,0-0.6-0.1c0,0-4.3-2.1-13.4-2.1c-9.2,0-13.4,2.1-13.4,2.1c-0.6,0.3-1.3,0.1-1.6-0.5
				c-0.3-0.6-0.1-1.3,0.5-1.6c0.2-0.1,4.7-2.4,14.5-2.4c9.8,0,14.3,2.3,14.5,2.4c0.6,0.3,0.8,1,0.5,1.6
				C79.3,482.8,78.9,483,78.5,483z"/>
		</g>
	</g>
	<g>
		<rect x="95.2" y="318" fill="#2C3E50" width="49.2" height="150.9"/>
		<rect x="39.6" y="318" fill="#2C3E50" width="49.2" height="150.9"/>
	</g>
	<g>
		<path fill="#D9BA98" d="M182.9,174.7c0,0,6,67-36.3,83.5l1.7-86L182.9,174.7z"/>
		<path fill="#D9BA98" d="M1.1,174.7c0,0-6.8,68.5,36.3,83.5l-1.7-86L1.1,174.7z"/>
	</g>
	<path fill="#4FC6DB" d="M169,122.6c-15.2-17.9-51-10.8-51-10.8L92,146.3l-26.1-34.5c0,0-35.8-7.1-51,10.8
		c-15.2,17.9-15,59.2-15,59.2h31.5c0,0,1,44.3,2,53.4c0.9,9.1-1.7,84.8-1.7,84.8H92h60.2c0,0-2.7-75.8-1.7-84.8
		c0.9-9.1,2-53.4,2-53.4H184C184,181.8,184.2,140.5,169,122.6z"/>
	<path fill="#D9BA98" d="M110.4,145.6c0,0,1.9,2.9-1.2,4.8c-3.7,2.2-9.4,4.5-17.2,4.5c-6.1,0-11-1.4-14.5-3.1
		c-4.9-2.3-4.1-5.7-4.1-5.7l-3.3-4.8V73.1h43.8V143L110.4,145.6z"/>
	<path fill="#E2E2DF" d="M113.9,112.2c0,0-1.5,30.4-21.9,30.4c-20.4,0-21.9-30.4-21.9-30.4h-4.2c0,39.3,26.1,34.5,26.1,34.5
		s26.1,4.8,26.1-34.5H113.9z"/>
	<g>
		<path fill="#D9BA98" d="M59.2,60.5c0,2.2-1.8,4.1-4.1,4.1l0,0c-2.3,0-4.1-1.8-4.1-4.1V45.6c0-2.3,1.8-4.1,4.1-4.1l0,0
			c2.3,0,4.1,1.8,4.1,4.1V60.5z"/>
		<path fill="#D9BA98" d="M133,60.5c0,2.2-1.8,4.1-4.1,4.1l0,0c-2.3,0-4.1-1.8-4.1-4.1V45.6c0-2.3,1.8-4.1,4.1-4.1l0,0
			c2.2,0,4.1,1.8,4.1,4.1V60.5z"/>
	</g>
	<path fill="#EAD0A7" d="M128.9,46.9c0,20.4,3.7,51.8-36.9,51.8c-40.6,0-36.9-31.5-36.9-51.8c0-20.4,16.5-36.9,36.9-36.9
		C112.4,10.1,128.9,26.6,128.9,46.9z"/>
	<g>
		<path fill="#D7BA98" d="M80.5,79.4c0,0,0.2,0.4,0.8,0.9c0.3,0.3,0.6,0.6,1,0.9c0.4,0.3,0.9,0.6,1.4,0.9c0.5,0.3,1.1,0.5,1.8,0.7
			c0.3,0.1,0.7,0.2,1,0.3c0.3,0.1,0.7,0.1,1.1,0.2c0.7,0.1,1.5,0.2,2.3,0.3c0.4,0,0.8,0.1,1.2,0.1l1.2,0c0.9,0,1.8,0,2.5-0.1
			c0.7,0,1.5-0.2,2.3-0.3c0.4-0.1,0.7-0.2,1.1-0.2c0.3-0.1,0.7-0.2,1-0.3c0.6-0.2,1.2-0.5,1.8-0.7c0.5-0.3,1-0.6,1.4-0.9
			c0.4-0.3,0.7-0.6,1-0.9c0.5-0.5,0.8-0.9,0.8-0.9s0,0.5-0.2,1.2c-0.1,0.4-0.3,0.9-0.6,1.4c-0.3,0.5-0.7,1-1.2,1.5
			c-0.3,0.3-0.5,0.5-0.8,0.8c-0.3,0.2-0.7,0.5-1,0.7c-0.4,0.2-0.7,0.4-1.1,0.6c-0.4,0.2-0.8,0.3-1.2,0.5c-0.9,0.3-1.7,0.5-2.7,0.6
			c-1,0.2-1.8,0.2-2.7,0.2c-1.1-0.1-1.9,0-2.8-0.2c-0.9-0.1-1.8-0.4-2.7-0.6c-0.4-0.2-0.8-0.3-1.2-0.5c-0.4-0.2-0.8-0.4-1.1-0.6
			c-0.3-0.2-0.7-0.4-1-0.7c-0.3-0.3-0.6-0.5-0.8-0.8c-0.5-0.5-0.9-1-1.2-1.5c-0.3-0.5-0.5-1-0.6-1.4C80.5,79.9,80.5,79.4,80.5,79.4z
			"/>
	</g>
	<path fill="#D7BA98" d="M99.3,72.2c0,1.8-1.5,3.3-3.3,3.3h-7.6c-1.8,0-3.3-1.5-3.3-3.3l1-4c0.5-1.7,1.5-3.3,3.3-3.3H95
		c1.8,0,2.7,1.4,3.3,3.3L99.3,72.2z"/>
	<circle fill="#FFFFFF" cx="76.9" cy="51" r="7.2"/>
	<circle fill="#2AAAE2" cx="76.9" cy="51" r="3.9"/>
	<circle fill="#010101" cx="76.9" cy="51" r="1.8"/>
	<circle fill="#FFFFFF" cx="78.7" cy="49.2" r="2.1"/>
	<path fill="#EAD0A7" d="M84.1,51c0-3.9-14.4-4.2-14.4,0c0-4,3.2-7.2,7.2-7.2C80.9,43.8,84.1,47,84.1,51z"/>
	<circle fill="#FFFFFF" cx="107.8" cy="51" r="7.2"/>
	<circle fill="#2AAAE2" cx="107.8" cy="51" r="3.9"/>
	<circle fill="#010101" cx="107.8" cy="51" r="1.8"/>
	<circle fill="#FFFFFF" cx="109.6" cy="49.2" r="2.1"/>
	<path fill="#EAD0A7" d="M115,51c0-3.9-14.4-4.2-14.4,0c0-4,3.2-7.2,7.2-7.2C111.8,43.8,115,47,115,51z"/>
	<g>
		<path fill="#010101" d="M98.6,40.7c0,0,0.1-0.1,0.2-0.2c0.1-0.1,0.3-0.3,0.6-0.6c0.3-0.2,0.6-0.5,1.1-0.7c0.4-0.2,0.9-0.5,1.5-0.7
			c0.3-0.1,0.6-0.2,0.9-0.3c0.3-0.1,0.6-0.2,1-0.2c0.7-0.2,1.4-0.2,2.2-0.2c0.8,0.1,1.6,0.1,2.3,0.4c0.4,0.1,0.8,0.2,1.2,0.3
			l1.1,0.5c0.8,0.2,1.5,0.7,2.2,1.1c0.7,0.4,1.3,0.9,1.9,1.3c0.6,0.5,1,1,1.5,1.5c0.5,0.5,0.8,1,1.2,1.5c0.3,0.5,0.7,0.9,0.9,1.3
			c0.2,0.4,0.4,0.8,0.6,1.1c0.3,0.6,0.5,0.9,0.5,0.9l-0.3,0.2c0,0-0.3-0.3-0.7-0.8c-0.2-0.2-0.5-0.5-0.8-0.9c-0.3-0.4-0.7-0.7-1.1-1
			c-0.4-0.3-0.8-0.8-1.3-1.1c-0.5-0.3-1-0.7-1.6-1.1c-0.6-0.3-1.2-0.6-1.8-0.9c-0.6-0.2-1.3-0.5-1.9-0.6l-1-0.2c-0.3,0-0.7,0-1-0.1
			c-0.7-0.1-1.3,0-1.9,0c-0.6,0-1.2,0-1.8,0c-0.6,0-1.2,0-1.7,0c-0.5,0-1,0-1.5,0c-0.4,0-0.8,0-1.2,0c-0.7,0-1.1,0-1.1,0L98.6,40.7z
			"/>
	</g>
	<g>
		<path fill="#010101" d="M81.3,41c0,0-0.4,0-1.1,0c-0.3,0-0.7,0-1.2,0c-0.5,0-0.9,0-1.5,0c-0.5,0-1.1,0-1.7,0c-0.6,0-1.2,0.1-1.8,0
			c-0.6,0.1-1.3,0-1.9,0c-0.3,0-0.7,0-1,0.1l-1,0.2c-0.7,0.1-1.3,0.4-1.9,0.6c-0.6,0.3-1.2,0.6-1.8,0.9c-0.6,0.3-1.1,0.7-1.6,1.1
			c-0.5,0.3-0.9,0.8-1.3,1.1c-0.4,0.4-0.8,0.7-1.1,1c-0.3,0.3-0.6,0.6-0.8,0.9c-0.4,0.5-0.7,0.8-0.7,0.8l-0.3-0.2
			c0,0,0.2-0.3,0.5-0.9c0.2-0.3,0.4-0.6,0.6-1.1c0.2-0.4,0.5-0.8,0.9-1.3c0.4-0.4,0.7-1,1.2-1.5c0.5-0.5,1-1,1.5-1.5
			c0.6-0.4,1.2-1,1.9-1.3c0.7-0.4,1.4-0.8,2.2-1.1l1.1-0.5c0.4-0.1,0.8-0.2,1.2-0.3c0.8-0.3,1.6-0.3,2.3-0.4c0.8,0,1.5,0,2.2,0.2
			c0.3,0.1,0.7,0.2,1,0.2c0.3,0.1,0.6,0.2,0.9,0.3c0.6,0.2,1.1,0.5,1.5,0.7c0.4,0.3,0.8,0.5,1.1,0.7c0.3,0.2,0.5,0.4,0.6,0.6
			c0.1,0.1,0.2,0.2,0.2,0.2L81.3,41z"/>
	</g>
	<path fill="#010101" d="M110.6,8.9c0,0-13.2-14.1-35.7-4.9c-22.5,9.2-25.2,14.4-20.8,16.1c0,0-11.1,15.3-6,16.1
		c0,0-5.3,8.4-3.8,9.3c10.5,5.8,46.9,12.6,66.3-12.4c22.6,17.3,26.8,13.8,26.8,13.8s-2-7.8-4-16.1C131.3,22.4,126.1,3.4,110.6,8.9z"
		/>
	<g>
		<path fill="#2C3E50" d="M135.6,179.4l-3.4-0.3c0-0.5,4-46.5-9.3-61c-2.6-2.8-5.5-4.2-9-4.2v-3.5c4.5,0,8.4,1.8,11.6,5.3
			C139.8,131.3,135.8,177.4,135.6,179.4z"/>
	</g>
	<path fill="#2C3E50" d="M59.1,118.8c2.8-3.3,6.4-4.9,11-4.9v-3.5c-5.6,0-10.2,2.1-13.6,6.1c-9.6,11.4-7.3,35.2-6.3,42.1h-6.7
		c-2.9,0-5.2,2.3-5.2,5.2V213c0,2.9,2.3,5.2,5.2,5.2h0.7v1.6c0,1.5,1.3,2.8,2.8,2.8c1.5,0,2.8-1.3,2.8-2.8v-7c0-1.5-1.3-2.8-2.8-2.8
		c-1.5,0-2.8,1.3-2.8,2.8v1.9h-0.7c-1,0-1.7-0.8-1.7-1.7v-49.2c0-1,0.8-1.7,1.7-1.7h17.3c1,0,1.7,0.8,1.7,1.7V213
		c0,1-0.8,1.7-1.7,1.7h-0.7v-1.9c0-1.5-1.3-2.8-2.8-2.8c-1.5,0-2.8,1.3-2.8,2.8v7c0,1.5,1.3,2.8,2.8,2.8c1.5,0,2.8-1.3,2.8-2.8v-1.6
		h0.7c2.9,0,5.2-2.3,5.2-5.2v-49.2c0-2.9-2.3-5.2-5.2-5.2h-7.1C52.8,152.8,50.3,129.2,59.1,118.8z"/>
	<circle fill="#0193A4" cx="133" cy="179.4" r="11.5"/>
	<text transform="matrix(1 0 0 1 126.507 184.9696)" fill="#FFFFFF" font-family="'FontAwesome'" font-size="15.2008"></text>
</g>
</svg>
