<?xml version="1.0" encoding="utf-8"?>
<!-- Generator: Adobe Illustrator 18.1.0, SVG Export Plug-In . SVG Version: 6.00 Build 0)  -->
<!DOCTYPE svg PUBLIC "-//W3C//DTD SVG 1.1//EN" "http://www.w3.org/Graphics/SVG/1.1/DTD/svg11.dtd">
<svg version="1.1" id="Layer_1" xmlns="http://www.w3.org/2000/svg" xmlns:xlink="http://www.w3.org/1999/xlink" x="0px" y="0px"
	 viewBox="0 0 40 62" enable-background="new 0 0 40 62" xml:space="preserve">
<g>
	<path fill="#FFFFFF" d="M7.1,29.7c-2.1-2.3-3.7-4.8-4.6-7.7C-1.3,10.8,7.3,2.8,14.8,1.3c8.4-1.6,16.5,3,20.5,10.7
		c2.7,5.1,3.4,10.5,3,16.2C37.5,39.1,32.6,48,25.4,55.8c-2.6,2.7-5.6,4.8-9.6,5.1c-4.9,0.4-9.3-2.7-9.8-7.4c-0.2-1.5,0.2-3,0.5-4.5
		c0.2-0.9,0.3-1.7-0.1-2.5c-0.8-1.9-0.8-3.8,0.2-5.6c0.3-0.7,0.5-1.3,0-2.1C4.4,35.8,4.9,32.8,7.1,29.7z M10.9,29.9
		c-0.7,0.6-1.3,1.1-1.8,1.7C7.8,33,7,35.2,8.6,37.4c1.1,1.4,1.2,2.9,0.4,4.5c-0.7,1.3-0.7,2.7-0.2,4c0.6,1.3,0.4,2.6,0.1,4
		c-0.3,1.3-0.5,2.8-0.2,4.2c0.5,2.8,3.6,4.7,6.8,4.6c2.9-0.2,5.3-1.5,7.3-3.5c5.2-5.1,9.1-11.1,11.4-18c2-6,2.6-12,1.2-18.3
		c-1.4-6.1-4.6-11-10.3-13.8c-6.1-3-13.2-1.7-17.7,3.3C3.6,12.7,3.1,18.3,6,23.7C7.1,26,8.8,28.1,10.9,29.9z"/>
	<path fill="#FFFFFF" d="M24.5,45c0.3-0.9,0.6-1.8,0.9-2.7c1.9-5.1,2.8-10.3,2.5-15.7c-0.2-4.1-1.1-8.2-3.8-11.6c-1.6-2-3.7-3-6.2-3
		c-0.2,0-0.4,0.1-0.9,0.2c0.6,0.5,0.9,0.9,1.3,1.2c1.9,1.7,3.2,3.7,3.6,6.3c0.2,1.5-0.4,2.4-1.9,2.3c-1.4-0.1-2.7-0.5-4.1-0.7
		c-1.1-0.2-2.1-0.4-3.2-0.6c-0.1,0.1-0.1,0.2-0.2,0.3c0.3,0.2,0.7,0.6,1,0.8c1.4,0.8,2.9,1.5,4.3,2.4c1.6,1,3.3,2,4.6,3.3
		c3.8,3.7,1.2,8.5-1.9,10c-0.6,0.3-1.2,0.6-1.8,0.7c-2.6,0.9-4,2.7-4.6,5.3c-0.1,0.2,0,0.4-0.2,0.6c-0.3,0.4-0.8,1-1.2,1
		s-1.1-0.6-1.1-1c-0.1-1.2-0.1-2.3,0.1-3.4c0.3-1.6,0.1-3-0.8-4.3c-1.2-1.7-0.3-4,1.8-4.5c0.3-0.1,0.8,0.2,1.2,0.3
		c1.2,0.5,2.4,1.1,3.7,1.5c0.5,0.2,1.2,0.2,1.7,0c0.4-0.1,1.1-0.5,1.1-0.8c0.1-0.5-0.2-1.2-0.6-1.4c-0.7-0.6-1.4-0.9-2.2-1.3
		c-3.5-2.1-6.6-4.7-8.4-8.4C6.1,15.4,10,8.9,17.6,8.3c4.7-0.3,8.1,2.2,10.6,6c1.7,2.6,2.5,5.4,2.7,8.5c0.3,3.3,0.2,6.6-0.6,9.8
		c-0.7,3.7-1.9,7.1-3.8,10.4c-0.6,0.9-1.2,1.7-1.9,2.6C24.7,45,24.6,45,24.5,45z"/>
</g>
</svg>
