<?xml version="1.0" encoding="utf-8"?>
<!-- Generator: Adobe Illustrator 18.1.0, SVG Export Plug-In . SVG Version: 6.00 Build 0)  -->
<!DOCTYPE svg PUBLIC "-//W3C//DTD SVG 1.1//EN" "http://www.w3.org/Graphics/SVG/1.1/DTD/svg11.dtd">
<svg version="1.1" id="Layer_1" xmlns="http://www.w3.org/2000/svg" xmlns:xlink="http://www.w3.org/1999/xlink" x="0px" y="0px"
	 viewBox="0 0 62 40" enable-background="new 0 0 62 40" xml:space="preserve">
<path fill="#FFFFFF" d="M31.1,9.7c-12.3,0-23.1,5.9-30,15c6.8,9.1,17.7,15,30,15c12.3,0,23.1-5.9,30-15C54.1,15.6,43.3,9.7,31.1,9.7
	z M27.3,17.2c2,0,3.7,1.7,3.7,3.7s-1.7,3.7-3.7,3.7S23.6,23,23.6,21C23.6,18.8,25.3,17.2,27.3,17.2z M46.3,32.2
	c-2.3,1.2-4.8,2.1-7.3,2.7c-2.6,0.6-5.3,0.9-8,0.9c-2.7,0-5.4-0.3-8-0.9c-2.6-0.6-4.9-1.5-7.3-2.7c-3.7-1.9-7.1-4.4-9.8-7.6
	c2.8-3.1,6.1-5.7,9.8-7.6c1.9-0.9,3.8-1.8,5.9-2.3c-1.2,1.8-1.9,3.9-1.9,6.1c0,6.2,5,11.2,11.2,11.2c6.2,0,11.2-5,11.2-11.2
	c0-2.3-0.7-4.4-1.9-6.1c2,0.6,4,1.4,5.9,2.3c3.7,1.9,7.1,4.4,9.8,7.6C53.4,27.8,50,30.3,46.3,32.2z M51.4,5.2C45,2,38.2,0.3,31,0.3
	c-7.1,0-14,1.6-20.4,4.9C7.2,7,3.9,9.2,1,11.8v6.4c3.2-3.4,7.1-6.3,11.2-8.4C18,6.8,24.3,5.2,31,5.2s12.9,1.5,18.7,4.5
	c4.2,2.1,8,5,11.2,8.4v-6.4C58,9.2,54.9,7,51.4,5.2z"/>
</svg>
