<?xml version="1.0" encoding="utf-8"?>
<!-- Generator: Adobe Illustrator 18.1.0, SVG Export Plug-In . SVG Version: 6.00 Build 0)  -->
<!DOCTYPE svg PUBLIC "-//W3C//DTD SVG 1.1//EN" "http://www.w3.org/Graphics/SVG/1.1/DTD/svg11.dtd">
<svg version="1.1" id="Layer_1" xmlns="http://www.w3.org/2000/svg" xmlns:xlink="http://www.w3.org/1999/xlink" x="0px" y="0px"
	 viewBox="0 0 62 62" enable-background="new 0 0 62 62" xml:space="preserve">
<g>
	<path fill="#FFFFFF" d="M42.8,9.9c-7.6-7.6-7.6,0.2-7.6,0.2v13.1L33,21v-2.3h-4V21l-2.3,2.3V10.2c0,0,0-7.8-7.6-0.2
		c0,0-26.6,27.8-15.4,45.2c1.3,2.1,5.5,4.5,10.2-2.1c2.1-3,11.7,2.8,12.9-7.3V26.1l4.3-4.3l4.3,4.3v19.7c1.3,10.2,10.8,4.3,12.9,7.3
		c4.5,6.6,8.7,4.1,10.2,2.1C69.3,37.7,42.8,9.9,42.8,9.9z"/>
	<rect x="28.9" y="4.6" fill="#FFFFFF" width="4" height="2.4"/>
	<rect x="28.9" y="9.3" fill="#FFFFFF" width="4" height="2.4"/>
	<rect x="28.9" y="13.9" fill="#FFFFFF" width="4" height="2.3"/>
</g>
</svg>
