<?xml version="1.0" encoding="utf-8"?>
<!-- Generator: Adobe Illustrator 18.1.0, SVG Export Plug-In . SVG Version: 6.00 Build 0)  -->
<!DOCTYPE svg PUBLIC "-//W3C//DTD SVG 1.1//EN" "http://www.w3.org/Graphics/SVG/1.1/DTD/svg11.dtd">
<svg version="1.1" id="Layer_1" xmlns="http://www.w3.org/2000/svg" xmlns:xlink="http://www.w3.org/1999/xlink" x="0px" y="0px"
	 viewBox="0 0 62 62" enable-background="new 0 0 62 62" xml:space="preserve">
<g>
	<polygon fill="#FFFFFF" points="29.5,9.8 30.6,9.8 30.6,8.4 32.1,8.4 32.1,7.3 30.6,7.3 30.6,5.8 29.5,5.8 29.5,7.3 28.1,7.3 
		28.1,8.4 29.5,8.4 	"/>
	<path fill="#FFFFFF" d="M41.8,17.1V5c0,0-11.7-9.1-23.4,0v12c0,0,3.7-3.7,11.5-3.8C37.8,13.1,41.8,17.1,41.8,17.1z M25.8,6.5
		c0-1.4,1.1-2.5,2.5-2.5c0.7,0,1.4,0.3,1.9,0.8C30.6,4.3,31.2,4,32,4c1.4,0,2.5,1.1,2.5,2.5c0,0.8-0.3,1.4-0.9,1.9h0l-3.4,3.3
		l-3.5-3.3h0C26.1,7.9,25.8,7.2,25.8,6.5z"/>
	<path fill="#FFFFFF" d="M17.5,21.6c0,6.9,5.6,15.6,12.6,15.6c6.9,0,12.6-8.7,12.6-15.6c0-0.3,0-0.7,0-1l-2-2
		c-0.2-0.2-3.6-3.3-10.2-3.3l-0.3,0c-6.9,0.1-10.1,3.2-10.3,3.3l-2.3,2.2C17.6,21.2,17.5,21.4,17.5,21.6z"/>
	<path fill="#FFFFFF" d="M43.2,33.4L30.4,55.4L18.8,33.4c0,0-10.6,1-13.6,15.7c-0.5,2.6,0.7,6.7,3,8c3.5,1.9,10.2,4,22.7,3.9
		c12.5,0.1,19.2-2,22.7-3.9c2.4-1.3,3.6-5.3,3-8C53.8,34.4,43.2,33.4,43.2,33.4z M20.8,58.2c-4.5,0-8.7-1.7-8.9-1.8l0.9-2.2
		c0.1,0,5.9,2.4,10.7,1.3l0.5,2.4C23,58.1,21.9,58.2,20.8,58.2z M39.9,58.6c-1.1,0-2.2-0.1-3.3-0.3l0.5-2.4
		c4.8,1.1,10.6-1.3,10.7-1.3l0.9,2.2C48.6,56.9,44.5,58.6,39.9,58.6z"/>
</g>
</svg>
