<?xml version="1.0" encoding="utf-8"?>
<!-- Generator: Adobe Illustrator 18.1.0, SVG Export Plug-In . SVG Version: 6.00 Build 0)  -->
<!DOCTYPE svg PUBLIC "-//W3C//DTD SVG 1.1//EN" "http://www.w3.org/Graphics/SVG/1.1/DTD/svg11.dtd">
<svg version="1.1" id="Layer_1" xmlns="http://www.w3.org/2000/svg" xmlns:xlink="http://www.w3.org/1999/xlink" x="0px" y="0px"
	 viewBox="0 0 62 62" enable-background="new 0 0 62 62" xml:space="preserve">
<g>
	<path fill="#FFFFFF" d="M1,30c0-7.4,1.3-11,3.9-11c0.1,0,0.6,0.2,1.4,0.7s1.8,0.9,3,1.3c1.2,0.4,2.5,0.7,3.7,0.7
		c1.4,0,2.8-0.2,4.2-0.7C17.1,21.7,17,22.4,17,23c0,2.9,0.8,5.6,2.5,8c-3.4,0.1-6.1,1.4-8.3,4H7.1c-1.7,0-3.1-0.4-4.3-1.3
		C1.6,32.9,1,31.7,1,30z M7.3,16.7C5.8,15.1,5,13.2,5,11c0-2.2,0.8-4.1,2.3-5.7C8.9,3.8,10.8,3,13,3c2.2,0,4.1,0.8,5.7,2.3
		C20.2,6.9,21,8.8,21,11c0,2.2-0.8,4.1-2.3,5.7C17.1,18.2,15.2,19,13,19C10.8,19,8.9,18.2,7.3,16.7z M9,50.9c0-1.1,0-2.2,0.1-3.2
		c0.1-1.1,0.2-2.2,0.4-3.4s0.5-2.3,0.8-3.4c0.3-1,0.8-2.1,1.3-3c0.6-1,1.2-1.8,1.9-2.5c0.7-0.7,1.6-1.3,2.7-1.7
		c1.1-0.4,2.2-0.6,3.5-0.6c0.2,0,0.7,0.2,1.3,0.7c0.7,0.4,1.4,0.9,2.3,1.5c0.8,0.6,1.9,1.1,3.3,1.5c1.4,0.4,2.8,0.7,4.2,0.7
		c1.4,0,2.8-0.2,4.2-0.7c1.4-0.4,2.5-0.9,3.3-1.5c0.8-0.6,1.6-1.1,2.3-1.5c0.7-0.4,1.1-0.7,1.3-0.7c1.3,0,2.4,0.2,3.5,0.6
		s1.9,1,2.7,1.7c0.7,0.7,1.4,1.5,1.9,2.5c0.6,1,1,2,1.3,3c0.3,1,0.6,2.2,0.8,3.4s0.4,2.4,0.4,3.4c0.1,1.1,0.1,2.1,0.1,3.2
		c0,2.5-0.8,4.5-2.3,5.9c-1.5,1.4-3.5,2.2-6.1,2.2H17.3c-2.5,0-4.5-0.7-6.1-2.2C9.8,55.4,9,53.4,9,50.9z M22.5,31.5
		C20.2,29.1,19,26.3,19,23c0-3.3,1.2-6.1,3.5-8.5c2.3-2.3,5.2-3.5,8.5-3.5c3.3,0,6.1,1.2,8.5,3.5c2.3,2.3,3.5,5.2,3.5,8.5
		c0,3.3-1.2,6.1-3.5,8.5C37.1,33.8,34.3,35,31,35C27.7,35,24.9,33.8,22.5,31.5z M43.3,16.7C41.8,15.1,41,13.2,41,11
		c0-2.2,0.8-4.1,2.3-5.7C44.9,3.8,46.8,3,49,3c2.2,0,4.1,0.8,5.7,2.3C56.2,6.9,57,8.8,57,11c0,2.2-0.8,4.1-2.3,5.7
		C53.1,18.2,51.2,19,49,19C46.8,19,44.9,18.2,43.3,16.7z M42.5,31c1.7-2.4,2.5-5.1,2.5-8c0-0.6-0.1-1.3-0.2-2.1
		c1.4,0.5,2.8,0.7,4.2,0.7c1.2,0,2.5-0.2,3.7-0.7c1.2-0.4,2.3-0.9,3-1.3c0.8-0.4,1.2-0.7,1.4-0.7c2.6,0,3.9,3.7,3.9,11
		c0,1.6-0.6,2.9-1.7,3.7c-1.2,0.8-2.6,1.3-4.3,1.3h-4.2C48.6,32.4,45.8,31.1,42.5,31z"/>
</g>
</svg>
