<?xml version="1.0" encoding="utf-8"?>
<!-- Generator: Adobe Illustrator 18.1.0, SVG Export Plug-In . SVG Version: 6.00 Build 0)  -->
<!DOCTYPE svg PUBLIC "-//W3C//DTD SVG 1.1//EN" "http://www.w3.org/Graphics/SVG/1.1/DTD/svg11.dtd">
<svg version="1.1" id="Layer_1" xmlns="http://www.w3.org/2000/svg" xmlns:xlink="http://www.w3.org/1999/xlink" x="0px" y="0px"
	 viewBox="0 0 62 62" enable-background="new 0 0 62 62" xml:space="preserve">
<g>
	<path fill="#FFFFFF" d="M5,46.1C2.3,41.5,1,36.4,1,31S2.3,20.6,5,16S11.4,7.7,15.9,5S25.6,1,31,1c5.5,0,10.5,1.3,15.1,4
		S54.3,11.4,57,16c2.7,4.6,4,9.6,4,15.1c0,5.5-1.3,10.5-4,15.1c-2.7,4.6-6.3,8.2-10.9,10.9s-9.6,4-15.1,4c-5.5,0-10.5-1.3-15.1-4
		C11.4,54.3,7.7,50.7,5,46.1z M13.5,33.5c0,0.7,0.2,1.3,0.7,1.8c0.5,0.5,1.1,0.7,1.8,0.7h10v10c0,0.7,0.2,1.3,0.7,1.8
		c0.5,0.5,1.1,0.7,1.8,0.7h5c0.7,0,1.3-0.2,1.8-0.7c0.5-0.5,0.7-1.1,0.7-1.8V36h10c0.7,0,1.3-0.2,1.8-0.7c0.5-0.5,0.7-1.1,0.7-1.8
		v-5c0-0.7-0.2-1.3-0.7-1.8C47.2,26.3,46.6,26,46,26H36V16c0-0.7-0.2-1.3-0.7-1.8c-0.5-0.5-1.1-0.7-1.8-0.7h-5
		c-0.7,0-1.3,0.2-1.8,0.7C26.2,14.7,26,15.3,26,16v10H16c-0.7,0-1.3,0.2-1.8,0.7c-0.5,0.5-0.7,1.1-0.7,1.8V33.5z"/>
</g>
</svg>
