<?xml version="1.0" encoding="utf-8"?>
<!-- Generator: Adobe Illustrator 18.1.0, SVG Export Plug-In . SVG Version: 6.00 Build 0)  -->
<!DOCTYPE svg PUBLIC "-//W3C//DTD SVG 1.1//EN" "http://www.w3.org/Graphics/SVG/1.1/DTD/svg11.dtd">
<svg version="1.1" id="Layer_1" xmlns="http://www.w3.org/2000/svg" xmlns:xlink="http://www.w3.org/1999/xlink" x="0px" y="0px"
	 viewBox="0 0 62 62" enable-background="new 0 0 62 62" xml:space="preserve">
<g>
	<path fill="#FFFFFF" d="M1,35.3c0,1.1,0.4,2.2,1.3,3c0.8,0.8,1.9,1.3,3,1.3h17.2v17.2c0,1.1,0.4,2.2,1.3,3c0.8,0.8,1.9,1.3,3,1.3
		h8.6c1.1,0,2.2-0.4,3-1.3c0.8-0.8,1.3-1.9,1.3-3V39.6h17.2c1.1,0,2.2-0.4,3-1.3c0.8-0.8,1.3-1.9,1.3-3v-8.6c0-1.1-0.4-2.2-1.3-3
		c-0.8-0.8-1.9-1.3-3-1.3H39.6V5.3c0-1.1-0.4-2.2-1.3-3S36.4,1,35.3,1h-8.6c-1.1,0-2.2,0.4-3,1.3c-0.8,0.8-1.3,1.9-1.3,3v17.2H5.3
		c-1.1,0-2.2,0.4-3,1.3c-0.8,0.8-1.3,1.9-1.3,3V35.3z"/>
</g>
</svg>
