<?xml version="1.0" encoding="utf-8"?>
<!-- Generator: Adobe Illustrator 18.1.0, SVG Export Plug-In . SVG Version: 6.00 Build 0)  -->
<!DOCTYPE svg PUBLIC "-//W3C//DTD SVG 1.1//EN" "http://www.w3.org/Graphics/SVG/1.1/DTD/svg11.dtd">
<svg version="1.1" id="Layer_1" xmlns="http://www.w3.org/2000/svg" xmlns:xlink="http://www.w3.org/1999/xlink" x="0px" y="0px"
	 viewBox="0 0 62 50" enable-background="new 0 0 62 50" xml:space="preserve">
<g>
	<path fill="#FFFFFF" d="M1,44V6c0-1.4,0.5-2.6,1.5-3.5C3.4,1.5,4.6,1,6,1h50c1.4,0,2.6,0.5,3.5,1.5c1,1,1.5,2.2,1.5,3.5v38
		c0,1.4-0.5,2.6-1.5,3.5c-1,1-2.2,1.5-3.5,1.5H6c-1.4,0-2.6-0.5-3.5-1.5C1.5,46.6,1,45.4,1,44z M5,44c0,0.3,0.1,0.5,0.3,0.7
		C5.5,44.9,5.7,45,6,45h50c0.3,0,0.5-0.1,0.7-0.3c0.2-0.2,0.3-0.4,0.3-0.7V6c0-0.3-0.1-0.5-0.3-0.7C56.5,5.1,56.3,5,56,5H6
		C5.7,5,5.5,5.1,5.3,5.3C5.1,5.5,5,5.7,5,6V44z M9,41V29h8v12H9z M21,41V13h8v28H21z M33,41V21h8v20H33z M45,41V9h8v32H45z"/>
</g>
</svg>
