<?xml version="1.0" encoding="utf-8"?>
<!-- Generator: Adobe Illustrator 18.1.0, SVG Export Plug-In . SVG Version: 6.00 Build 0)  -->
<!DOCTYPE svg PUBLIC "-//W3C//DTD SVG 1.1//EN" "http://www.w3.org/Graphics/SVG/1.1/DTD/svg11.dtd">
<svg version="1.1" id="Layer_1" xmlns="http://www.w3.org/2000/svg" xmlns:xlink="http://www.w3.org/1999/xlink" x="0px" y="0px"
	 viewBox="0 0 50 62" enable-background="new 0 0 50 62" xml:space="preserve">
<g>
	<path fill="#FFFFFF" d="M1.4,58.9V3.1c0-0.6,0.2-1.1,0.6-1.5C2.5,1.2,3,1,3.6,1h42.9c0.6,0,1.1,0.2,1.5,0.6s0.6,0.9,0.6,1.5v55.7
		c0,0.6-0.2,1.1-0.6,1.5C47.5,60.8,47,61,46.4,61H3.6c-0.6,0-1.1-0.2-1.5-0.6C1.6,59.9,1.4,59.4,1.4,58.9z M5.7,56.7h12.9v-7.5
		c0-0.3,0.1-0.5,0.3-0.8c0.2-0.2,0.5-0.3,0.8-0.3h10.7c0.3,0,0.5,0.1,0.8,0.3c0.2,0.2,0.3,0.5,0.3,0.8v7.5h12.9V5.3H5.7V56.7z
		 M10,12.8v-2.1c0-0.3,0.1-0.5,0.3-0.8c0.2-0.2,0.5-0.3,0.8-0.3h2.1c0.3,0,0.5,0.1,0.8,0.3c0.2,0.2,0.3,0.5,0.3,0.8v2.1
		c0,0.3-0.1,0.5-0.3,0.8c-0.2,0.2-0.5,0.3-0.8,0.3h-2.1c-0.3,0-0.5-0.1-0.8-0.3C10.1,13.3,10,13.1,10,12.8z M10,21.4v-2.1
		c0-0.3,0.1-0.5,0.3-0.8c0.2-0.2,0.5-0.3,0.8-0.3h2.1c0.3,0,0.5,0.1,0.8,0.3c0.2,0.2,0.3,0.5,0.3,0.8v2.1c0,0.3-0.1,0.5-0.3,0.8
		s-0.5,0.3-0.8,0.3h-2.1c-0.3,0-0.5-0.1-0.8-0.3S10,21.6,10,21.4z M10,29.9v-2.1c0-0.3,0.1-0.5,0.3-0.8s0.5-0.3,0.8-0.3h2.1
		c0.3,0,0.5,0.1,0.8,0.3s0.3,0.5,0.3,0.8v2.1c0,0.3-0.1,0.5-0.3,0.8S13.5,31,13.2,31h-2.1c-0.3,0-0.5-0.1-0.8-0.3S10,30.2,10,29.9z
		 M10,38.5v-2.1c0-0.3,0.1-0.5,0.3-0.8s0.5-0.3,0.8-0.3h2.1c0.3,0,0.5,0.1,0.8,0.3s0.3,0.5,0.3,0.8v2.1c0,0.3-0.1,0.5-0.3,0.8
		s-0.5,0.3-0.8,0.3h-2.1c-0.3,0-0.5-0.1-0.8-0.3S10,38.8,10,38.5z M10,47.1v-2.1c0-0.3,0.1-0.5,0.3-0.8s0.5-0.3,0.8-0.3h2.1
		c0.3,0,0.5,0.1,0.8,0.3s0.3,0.5,0.3,0.8v2.1c0,0.3-0.1,0.5-0.3,0.8s-0.5,0.3-0.8,0.3h-2.1c-0.3,0-0.5-0.1-0.8-0.3S10,47.4,10,47.1z
		 M18.6,12.8v-2.1c0-0.3,0.1-0.5,0.3-0.8c0.2-0.2,0.5-0.3,0.8-0.3h2.1c0.3,0,0.5,0.1,0.8,0.3c0.2,0.2,0.3,0.5,0.3,0.8v2.1
		c0,0.3-0.1,0.5-0.3,0.8c-0.2,0.2-0.5,0.3-0.8,0.3h-2.1c-0.3,0-0.5-0.1-0.8-0.3C18.7,13.3,18.6,13.1,18.6,12.8z M18.6,21.4v-2.1
		c0-0.3,0.1-0.5,0.3-0.8c0.2-0.2,0.5-0.3,0.8-0.3h2.1c0.3,0,0.5,0.1,0.8,0.3c0.2,0.2,0.3,0.5,0.3,0.8v2.1c0,0.3-0.1,0.5-0.3,0.8
		s-0.5,0.3-0.8,0.3h-2.1c-0.3,0-0.5-0.1-0.8-0.3S18.6,21.6,18.6,21.4z M18.6,29.9v-2.1c0-0.3,0.1-0.5,0.3-0.8s0.5-0.3,0.8-0.3h2.1
		c0.3,0,0.5,0.1,0.8,0.3s0.3,0.5,0.3,0.8v2.1c0,0.3-0.1,0.5-0.3,0.8S22.1,31,21.8,31h-2.1c-0.3,0-0.5-0.1-0.8-0.3
		S18.6,30.2,18.6,29.9z M18.6,38.5v-2.1c0-0.3,0.1-0.5,0.3-0.8s0.5-0.3,0.8-0.3h2.1c0.3,0,0.5,0.1,0.8,0.3s0.3,0.5,0.3,0.8v2.1
		c0,0.3-0.1,0.5-0.3,0.8s-0.5,0.3-0.8,0.3h-2.1c-0.3,0-0.5-0.1-0.8-0.3S18.6,38.8,18.6,38.5z M27.1,12.8v-2.1c0-0.3,0.1-0.5,0.3-0.8
		c0.2-0.2,0.5-0.3,0.8-0.3h2.1c0.3,0,0.5,0.1,0.8,0.3c0.2,0.2,0.3,0.5,0.3,0.8v2.1c0,0.3-0.1,0.5-0.3,0.8c-0.2,0.2-0.5,0.3-0.8,0.3
		h-2.1c-0.3,0-0.5-0.1-0.8-0.3C27.2,13.3,27.1,13.1,27.1,12.8z M27.1,21.4v-2.1c0-0.3,0.1-0.5,0.3-0.8c0.2-0.2,0.5-0.3,0.8-0.3h2.1
		c0.3,0,0.5,0.1,0.8,0.3c0.2,0.2,0.3,0.5,0.3,0.8v2.1c0,0.3-0.1,0.5-0.3,0.8c-0.2,0.2-0.5,0.3-0.8,0.3h-2.1c-0.3,0-0.5-0.1-0.8-0.3
		S27.1,21.6,27.1,21.4z M27.1,29.9v-2.1c0-0.3,0.1-0.5,0.3-0.8s0.5-0.3,0.8-0.3h2.1c0.3,0,0.5,0.1,0.8,0.3c0.2,0.2,0.3,0.5,0.3,0.8
		v2.1c0,0.3-0.1,0.5-0.3,0.8c-0.2,0.2-0.5,0.3-0.8,0.3h-2.1c-0.3,0-0.5-0.1-0.8-0.3S27.1,30.2,27.1,29.9z M27.1,38.5v-2.1
		c0-0.3,0.1-0.5,0.3-0.8s0.5-0.3,0.8-0.3h2.1c0.3,0,0.5,0.1,0.8,0.3c0.2,0.2,0.3,0.5,0.3,0.8v2.1c0,0.3-0.1,0.5-0.3,0.8
		c-0.2,0.2-0.5,0.3-0.8,0.3h-2.1c-0.3,0-0.5-0.1-0.8-0.3S27.1,38.8,27.1,38.5z M35.7,12.8v-2.1c0-0.3,0.1-0.5,0.3-0.8
		c0.2-0.2,0.5-0.3,0.8-0.3h2.1c0.3,0,0.5,0.1,0.8,0.3c0.2,0.2,0.3,0.5,0.3,0.8v2.1c0,0.3-0.1,0.5-0.3,0.8c-0.2,0.2-0.5,0.3-0.8,0.3
		h-2.1c-0.3,0-0.5-0.1-0.8-0.3C35.8,13.3,35.7,13.1,35.7,12.8z M35.7,21.4v-2.1c0-0.3,0.1-0.5,0.3-0.8c0.2-0.2,0.5-0.3,0.8-0.3h2.1
		c0.3,0,0.5,0.1,0.8,0.3c0.2,0.2,0.3,0.5,0.3,0.8v2.1c0,0.3-0.1,0.5-0.3,0.8c-0.2,0.2-0.5,0.3-0.8,0.3h-2.1c-0.3,0-0.5-0.1-0.8-0.3
		C35.8,21.9,35.7,21.6,35.7,21.4z M35.7,29.9v-2.1c0-0.3,0.1-0.5,0.3-0.8c0.2-0.2,0.5-0.3,0.8-0.3h2.1c0.3,0,0.5,0.1,0.8,0.3
		c0.2,0.2,0.3,0.5,0.3,0.8v2.1c0,0.3-0.1,0.5-0.3,0.8c-0.2,0.2-0.5,0.3-0.8,0.3h-2.1c-0.3,0-0.5-0.1-0.8-0.3
		C35.8,30.5,35.7,30.2,35.7,29.9z M35.7,38.5v-2.1c0-0.3,0.1-0.5,0.3-0.8c0.2-0.2,0.5-0.3,0.8-0.3h2.1c0.3,0,0.5,0.1,0.8,0.3
		c0.2,0.2,0.3,0.5,0.3,0.8v2.1c0,0.3-0.1,0.5-0.3,0.8c-0.2,0.2-0.5,0.3-0.8,0.3h-2.1c-0.3,0-0.5-0.1-0.8-0.3
		C35.8,39,35.7,38.8,35.7,38.5z M35.7,47.1v-2.1c0-0.3,0.1-0.5,0.3-0.8c0.2-0.2,0.5-0.3,0.8-0.3h2.1c0.3,0,0.5,0.1,0.8,0.3
		c0.2,0.2,0.3,0.5,0.3,0.8v2.1c0,0.3-0.1,0.5-0.3,0.8c-0.2,0.2-0.5,0.3-0.8,0.3h-2.1c-0.3,0-0.5-0.1-0.8-0.3
		C35.8,47.6,35.7,47.4,35.7,47.1z"/>
</g>
</svg>
