<?xml version="1.0" encoding="utf-8"?>
<!-- Generator: Adobe Illustrator 18.1.0, SVG Export Plug-In . SVG Version: 6.00 Build 0)  -->
<!DOCTYPE svg PUBLIC "-//W3C//DTD SVG 1.1//EN" "http://www.w3.org/Graphics/SVG/1.1/DTD/svg11.dtd">
<svg version="1.1" id="Layer_1" xmlns="http://www.w3.org/2000/svg" xmlns:xlink="http://www.w3.org/1999/xlink" x="0px" y="0px"
	 viewBox="0 0 62 62" enable-background="new 0 0 62 62" xml:space="preserve">
<g>
	<path fill="#FFFFFF" d="M3.5,50.9c0-1.4,0-2.7,0.1-4c0.1-1.3,0.3-2.7,0.5-4.3s0.6-2.9,1-4.2c0.4-1.3,1-2.6,1.7-3.8
		c0.7-1.2,1.5-2.3,2.4-3.2c0.9-0.9,2-1.6,3.3-2.1c1.3-0.5,2.8-0.8,4.4-0.8c0.2,0,0.8,0.3,1.6,0.8c0.9,0.6,1.8,1.2,2.9,1.9
		c1.1,0.7,2.5,1.3,4.2,1.9c1.7,0.6,3.5,0.8,5.2,0.8c1.7,0,3.5-0.3,5.2-0.8c1.7-0.6,3.1-1.2,4.2-1.9c1.1-0.7,2.1-1.3,2.9-1.9
		c0.9-0.6,1.4-0.8,1.6-0.8c1.6,0,3,0.3,4.4,0.8c1.3,0.5,2.4,1.2,3.3,2.1c0.9,0.9,1.7,1.9,2.4,3.2c0.7,1.2,1.3,2.5,1.7,3.8
		c0.4,1.3,0.8,2.7,1,4.2s0.5,2.9,0.5,4.3c0.1,1.3,0.1,2.7,0.1,4c0,3.1-1,5.6-2.9,7.4c-1.9,1.8-4.4,2.7-7.6,2.7H13.9
		c-3.2,0-5.7-0.9-7.6-2.7C4.5,56.5,3.5,54,3.5,50.9z M20.4,26.6C17.5,23.7,16,20.1,16,16c0-4.1,1.5-7.7,4.4-10.6
		C23.3,2.5,26.9,1,31,1c4.1,0,7.7,1.5,10.6,4.4C44.5,8.3,46,11.9,46,16c0,4.1-1.5,7.7-4.4,10.6C38.7,29.5,35.1,31,31,31
		C26.9,31,23.3,29.5,20.4,26.6z"/>
</g>
</svg>
