<?xml version="1.0" encoding="utf-8"?>
<!-- Generator: Adobe Illustrator 18.1.0, SVG Export Plug-In . SVG Version: 6.00 Build 0)  -->
<!DOCTYPE svg PUBLIC "-//W3C//DTD SVG 1.1//EN" "http://www.w3.org/Graphics/SVG/1.1/DTD/svg11.dtd">
<svg version="1.1" id="Layer_1" xmlns="http://www.w3.org/2000/svg" xmlns:xlink="http://www.w3.org/1999/xlink" x="0px" y="0px"
	 viewBox="0 0 50 62" enable-background="new 0 0 50 62" xml:space="preserve">
<path fill="#FFFFFF" d="M48,10.8c-0.1-2.4-1.4-5.4-2.6-6.7c-1.2-1.4-3.4-2.7-5-2.9c-1.5-0.2-4.7-0.2-7,0.1L25,2.4l-8.3-1.1
	c-2.4-0.3-5.5-0.4-7-0.1c-1.5,0.2-3.8,1.5-5,2.9C3.4,5.5,2.1,8.6,2,10.8c-0.2,4.2,0,10.8,3,16.9c0,0,2.2,4.3,2.2,11.2
	c0,5,1.9,15.8,4.4,20.7c1.1,2.1,4.3,1.7,5-0.5C18.9,51,20.6,31,25,31c4.3-0.1,6.1,20,8.3,28.1c0.6,2.3,3.9,2.7,5,0.5
	c2.5-4.8,4.4-15.6,4.4-20.7c0-6.8,2.2-11.2,2.2-11.2C48,21.7,48.2,15.1,48,10.8z"/>
</svg>
